# xmcd
#
# Track frame offsets: 
#        150
#        10248
#        35315
#        53683
#        79578
#        112141
#        138676
#        158746
#        184422
#        205585
#        237923
#        256994
#        278486
#
# Disc length: 3865 seconds
#
# Revision: 0
# Processed by: cddbd v1.5.2PL0 Copyright (c) Steve Scherf et al.
# Submitted via: ExactAudioCopy v0.99pb3
#
DISCID=aa0f170d
DTITLE=Winduptoys - Double Exposure
DYEAR=2006
DGENRE=Clan Analogue
TTITLE0=ON
TTITLE1=Switch On
TTITLE2=Lost And Found
TTITLE3=windupDUB
TTITLE4=DUB On Mars! (with Psyburbia)
TTITLE5=Point Of No Return
TTITLE6=Switched On (with Koshowko)
TTITLE7=Z Z Z Z Z
TTITLE8=The Suit
TTITLE9=ghostDUB
TTITLE10=Variable One
TTITLE11=Switch Off
TTITLE12=OFF
EXTD=
EXTT0=
EXTT1=
EXTT2=
EXTT3=
EXTT4=
EXTT5=
EXTT6=
EXTT7=
EXTT8=
EXTT9=
EXTT10=
EXTT11=
EXTT12=
PLAYORDER=
